<?xml version="1.0" encoding="utf-8"?>
<svg viewBox="0 0 182.229 161.509" xmlns="http://www.w3.org/2000/svg" xmlns:bx="https://boxy-svg.com">
  <defs>
    <clipPath id="clip-0">
      <path style="stroke: rgb(0, 0, 0); stroke-width: 3px; fill: rgba(255, 255, 255, 0);" d="M 90.686 87.776 L 15.638 173.547 L -4.975 3.914 L 194.961 3.707 L 161.556 167.742 L 90.686 87.776 Z"/>
    </clipPath>
  </defs>
  <polygon style="stroke: rgb(0, 0, 0); fill: rgb(255, 98, 89);" points="9.514 82.043 50.164 88.072 50.675 98.901 53.087 107.169 57.565 115.264 61.527 119.743 34.306 149.886 28.324 145.98 23.644 139.392 17.75 127.778 13.589 118.243 10.989 109.923 8.903 93.801"/>
  <polygon style="stroke: rgb(0, 0, 0); fill: rgb(255, 157, 65);" points="12.139 27.735 53.535 30.552 53.358 45.98 55.77 54.248 60.248 62.343 66.431 69.274 36.989 96.965 31.007 93.059 26.327 86.471 20.433 74.857 16.272 65.322 13.672 57.002 11.586 40.88" transform="matrix(0.594072, 0.804412, -0.804412, 0.594072, 65.989727, -6.069291)"/>
  <polygon style="stroke: rgb(0, 0, 0); fill: rgb(255, 255, 74);" points="61.522 -6.071 101.866 0.61 102.23 15.613 104.642 23.881 109.12 31.976 113.141 35.565 87.427 69.042 79.879 62.693 75.199 56.105 69.305 44.491 65.144 34.955 62.544 26.635 60.458 10.513" transform="matrix(-0.33774, 0.94124, -0.94124, -0.33774, 145.750537, -39.579711)"/>
  <polygon style="stroke: rgb(0, 0, 0); fill: rgb(94, 254, 118);" points="111.87 20.736 152.377 23.404 154.009 37.559 156.421 45.827 160.899 53.922 164.92 57.511 139.575 88.227 133.506 83.27 128.571 76.837 121.083 66.437 116.922 56.901 114.322 48.581 112.236 32.459" transform="matrix(-0.979241, 0.202701, -0.202701, -0.979241, 284.960451, 79.779198)"/>
  <polygon style="stroke: rgb(0, 0, 0); fill: rgb(252, 70, 255);" points="122.631 74.569 163.832 78.65 165.464 92.805 169.431 100.836 176.728 108.15 150.501 139.649 141.492 130.458 134.149 120.219 126.422 103.241 123.692 87.705" transform="matrix(-0.739758, -0.672873, 0.672873, -0.739758, 188.335364, 287.059037)"/>
  <path d="M 90.15 91.661 m -81.624 0 a 81.624 81.624 0 1 0 163.248 0 a 81.624 81.624 0 1 0 -163.248 0 Z M 90.15 91.661 m -40.242 0 a 40.242 40.242 0 0 1 80.484 0 a 40.242 40.242 0 0 1 -80.484 0 Z" style="stroke: rgb(0, 0, 0); stroke-width: 3px; clip-path: url(#clip-0); fill: none;" bx:shape="ring 90.15 91.661 40.242 40.242 81.624 81.624 1@7d7f006c"/>
  <line style="fill: rgb(216, 216, 216); stroke: rgb(0, 0, 0); stroke-width: 3px;" x1="61.743" y1="118.611" x2="33.147" y2="151.296"/>
  <line style="fill: rgb(216, 216, 216); stroke: rgb(0, 0, 0); stroke-width: 3px;" x1="119.078" y1="117.502" x2="148.481" y2="150.744"/>
  <line style="fill: rgb(216, 216, 216); stroke: rgb(0, 0, 0); stroke-width: 3px;" x1="49.316" y1="88.244" x2="9.79" y2="82.179"/>
  <line style="fill: rgb(216, 216, 216); stroke: rgb(0, 0, 0); stroke-width: 3px;" x1="130.687" y1="87.765" x2="171.052" y2="81.932"/>
  <line style="fill: rgb(216, 216, 216); stroke: rgb(0, 0, 0); stroke-width: 3px;" x1="73.437" y1="55.512" x2="50.726" y2="20.383"/>
  <line style="fill: rgb(216, 216, 216); stroke: rgb(0, 0, 0); stroke-width: 3px;" x1="110.478" y1="56.124" x2="130.229" y2="20.39"/>
</svg>